<svg width="225" height="5" viewBox="0 0 225 5" fill="none" xmlns="http://www.w3.org/2000/svg">
<path d="M0.5 0.5H16.5L12.5 4.5H0.5V0.5ZM20.5 0.5H32.5L28.5 4.5H16.5L20.5 0.5ZM36.5 0.5H48.5L44.5 4.5H32.5L36.5 0.5ZM52.5 0.5H64.5L60.5 4.5H48.5L52.5 0.5ZM68.5 0.5H80.5L76.5 4.5H64.5L68.5 0.5ZM84.5 0.5H96.5L92.5 4.5H80.5L84.5 0.5ZM100.5 0.5H112.5L108.5 4.5H96.5L100.5 0.5ZM116.5 0.5H128.5L124.5 4.5H112.5L116.5 0.5ZM132.5 0.5H144.5L140.5 4.5H128.5L132.5 0.5ZM148.5 0.5H160.5L156.5 4.5H144.5L148.5 0.5ZM164.5 0.5H176.5L172.5 4.5H160.5L164.5 0.5ZM180.5 0.5H192.5L188.5 4.5H176.5L180.5 0.5ZM196.5 0.5H208.5L204.5 4.5H192.5L196.5 0.5ZM212.5 0.5H224.5V4.5H208.5L212.5 0.5Z" fill="#FF453A" stroke="black"/>
</svg>
